<?xml version="1.0" standalone="no"?>
<!DOCTYPE svg PUBLIC "-//W3C//DTD SVG 20010904//EN"
 "http://www.w3.org/TR/2001/REC-SVG-20010904/DTD/svg10.dtd">
<svg version="1.0" xmlns="http://www.w3.org/2000/svg"
 width="460.000000pt" height="460.000000pt" viewBox="0 0 460.000000 460.000000"
 preserveAspectRatio="xMidYMid meet">
<metadata>
Created by potrace 1.14, written by Peter Selinger 2001-2017
</metadata>
<g transform="translate(0.000000,460.000000) scale(0.100000,-0.100000)"
fill="#000000" stroke="none">
<path d="M1812 4571 c-22 -17 -53 -33 -67 -35 -69 -13 -242 -70 -255 -85 -3
-3 -14 -7 -25 -9 -27 -4 -34 -6 -79 -26 -22 -9 -50 -19 -63 -22 -13 -4 -23 -9
-23 -13 0 -4 -16 -13 -35 -21 -20 -8 -43 -22 -52 -32 -9 -10 -20 -18 -26 -18
-5 0 -23 -10 -40 -22 -18 -13 -34 -23 -37 -23 -3 -1 -23 -12 -45 -26 -22 -13
-53 -31 -70 -39 -16 -8 -32 -17 -35 -20 -3 -3 -21 -17 -40 -32 -54 -40 -100
-86 -100 -97 0 -6 -3 -11 -7 -11 -5 0 -17 -13 -28 -29 -10 -16 -22 -28 -26
-25 -4 2 -12 -3 -17 -12 -5 -9 -12 -15 -15 -15 -4 1 -11 1 -16 1 -15 0 -103
-89 -201 -206 -30 -35 -74 -102 -83 -126 -3 -10 -11 -18 -17 -18 -5 0 -10 -6
-10 -14 0 -7 -7 -19 -15 -26 -9 -7 -13 -15 -11 -17 3 -3 -6 -15 -20 -28 -13
-12 -24 -27 -24 -33 0 -18 -43 -102 -52 -102 -10 0 -48 -75 -48 -95 0 -8 -5
-15 -11 -15 -5 0 -7 -4 -4 -10 3 -5 1 -10 -6 -10 -7 0 -10 -3 -6 -6 5 -5 -10
-41 -43 -104 -6 -13 -19 -61 -25 -90 0 -3 -7 -16 -14 -29 -7 -13 -8 -21 -2
-17 7 5 9 1 5 -8 -3 -9 -10 -16 -16 -16 -5 0 -6 -4 -3 -10 3 -5 3 -16 -2 -22
-4 -7 -9 -19 -10 -25 -7 -31 -12 -48 -13 -48 -1 0 -3 -7 -5 -15 -10 -50 -27
-100 -35 -105 -6 -4 -8 -11 -5 -16 4 -5 2 -9 -3 -9 -6 0 -13 -7 -16 -16 -4
-10 -2 -13 6 -8 6 4 4 -3 -5 -16 -14 -20 -16 -62 -17 -305 -1 -283 13 -452 43
-530 7 -16 12 -33 13 -37 1 -5 2 -9 4 -10 1 -2 3 -22 5 -45 1 -23 6 -50 10
-60 10 -23 12 -29 14 -49 0 -8 4 -13 9 -11 4 3 8 -5 8 -16 4 -48 9 -67 18 -67
5 0 7 -3 4 -6 -3 -3 3 -29 14 -57 10 -29 21 -59 23 -68 5 -26 138 -288 176
-349 18 -30 42 -63 53 -72 10 -10 15 -18 10 -18 -5 0 -4 -4 1 -8 6 -4 23 -26
38 -50 28 -43 56 -79 89 -114 10 -10 18 -21 18 -25 1 -5 21 -28 45 -53 25 -25
45 -48 45 -52 0 -5 7 -8 17 -8 9 0 14 -3 10 -6 -5 -5 20 -31 108 -109 12 -11
37 -31 54 -45 18 -14 40 -32 50 -41 10 -9 40 -31 67 -49 27 -19 51 -36 54 -39
26 -30 369 -215 420 -226 8 -2 38 -14 65 -26 28 -12 57 -24 65 -25 8 -1 56
-14 105 -28 146 -42 159 -45 190 -51 17 -2 61 -11 98 -18 39 -8 70 -10 73 -5
3 5 13 3 21 -4 12 -10 73 -14 235 -16 121 -1 224 1 230 4 5 4 31 8 56 9 36 3
209 36 307 59 53 12 125 38 130 46 4 6 11 8 16 4 11 -6 32 1 149 49 41 17 77
35 78 39 2 4 8 8 14 8 6 0 27 12 46 27 20 15 32 20 27 13 -5 -8 5 -4 21 7 17
12 42 25 57 28 15 4 27 11 27 15 0 4 11 11 25 14 22 6 162 94 191 121 6 5 35
30 64 55 29 25 69 60 88 78 19 17 39 32 44 32 5 0 6 5 3 10 -3 6 -2 10 3 10
15 0 218 209 252 260 8 12 27 36 42 54 15 17 28 37 28 44 0 6 5 12 11 12 5 0
7 5 4 10 -3 6 -3 10 2 10 8 0 128 197 128 211 0 4 4 11 8 16 8 8 35 65 37 81
1 4 6 12 12 19 5 7 6 18 2 24 -4 7 -3 9 3 6 5 -3 18 20 28 51 10 31 22 62 26
67 6 10 38 103 43 128 2 7 6 19 9 27 14 36 27 101 22 110 -3 6 -1 10 4 10 6 0
10 3 9 8 -1 4 2 18 5 32 4 14 8 36 10 50 1 14 6 31 11 38 4 7 6 15 3 18 -2 3
0 26 5 52 6 26 11 72 13 104 1 31 5 60 7 65 10 18 -2 419 -15 483 -3 14 -8 43
-11 65 -11 78 -15 91 -76 310 -15 54 -27 89 -60 170 -39 99 -139 299 -151 303
-5 2 -9 10 -9 18 0 8 -4 14 -9 14 -5 0 -13 10 -17 23 -4 12 -15 29 -25 38 -11
9 -19 21 -19 26 0 5 -10 23 -23 40 -12 17 -29 42 -37 54 -8 13 -27 36 -42 52
-16 16 -28 31 -28 34 0 3 -15 20 -32 38 -18 18 -55 58 -83 90 -61 71 -115 127
-115 120 0 -4 -19 11 -74 60 -37 33 -136 105 -144 105 -6 0 -12 4 -14 8 -3 8
-125 83 -180 111 -16 8 -28 18 -28 23 0 5 -4 7 -10 3 -5 -3 -27 6 -49 20 -23
14 -44 25 -49 25 -5 0 -26 9 -48 19 -21 11 -42 17 -46 14 -5 -2 -8 0 -8 5 0 5
-6 9 -12 9 -7 0 -29 7 -48 15 -69 31 -99 40 -109 33 -6 -3 -11 -1 -11 4 0 6
-3 10 -7 10 -17 -4 -93 14 -93 21 0 4 -10 8 -22 8 -61 1 -98 11 -130 35 -19
15 -42 27 -51 27 -10 0 -17 4 -17 8 0 5 -6 10 -12 12 -7 1 -191 4 -409 7
l-395 4 -42 -30z"/>
</g>
</svg>
